<?xml version="1.0" standalone="no"?>
<!DOCTYPE svg PUBLIC "-//W3C//DTD SVG 20010904//EN"
 "http://www.w3.org/TR/2001/REC-SVG-20010904/DTD/svg10.dtd">
<svg version="1.0" xmlns="http://www.w3.org/2000/svg"
 width="822.000000pt" height="822.000000pt" viewBox="0 0 822.000000 822.000000"
 preserveAspectRatio="xMidYMid meet">
<metadata>
Created by potrace 1.11, written by Peter Selinger 2001-2013
</metadata>
<g transform="translate(0.000000,822.000000) scale(0.100000,-0.100000)"
fill="#000000" stroke="none">
<path d="M495 8163 c8 -81 21 -227 30 -340 3 -29 7 -74 10 -100 2 -26 7 -77
10 -113 7 -87 14 -163 20 -230 3 -30 8 -82 11 -115 14 -165 15 -170 28 -340 3
-38 8 -86 11 -105 2 -19 7 -71 11 -115 3 -44 8 -96 9 -115 2 -19 6 -66 10
-105 3 -38 8 -88 10 -110 2 -22 7 -78 11 -125 8 -104 12 -135 13 -135 1 0 4
-35 6 -78 3 -42 7 -94 9 -115 3 -20 8 -73 11 -117 4 -44 9 -100 11 -125 9 -89
14 -146 19 -215 2 -38 7 -81 10 -95 2 -14 7 -61 10 -105 2 -44 7 -100 9 -125
5 -43 10 -102 22 -240 3 -36 7 -85 10 -110 2 -25 6 -74 9 -110 3 -36 7 -83 10
-105 2 -22 7 -78 10 -125 4 -47 8 -96 10 -110 3 -13 7 -58 10 -100 3 -41 7
-93 10 -115 5 -47 13 -135 20 -225 3 -36 7 -87 10 -115 12 -125 15 -155 21
-225 3 -41 7 -91 10 -110 2 -19 6 -71 9 -115 3 -44 8 -95 10 -115 3 -19 8 -69
11 -110 3 -41 7 -93 9 -115 3 -22 7 -67 10 -100 2 -33 7 -87 10 -120 3 -33 8
-87 10 -120 2 -33 7 -84 10 -114 12 -101 17 -160 30 -336 8 -107 11 -131 21
-146 5 -8 3 -9 -6 -4 -9 5 -11 4 -6 -4 8 -12 12 -51 21 -171 3 -36 7 -78 9
-95 2 -16 7 -70 11 -120 3 -49 8 -106 10 -125 2 -19 6 -69 10 -110 4 -41 9
-95 12 -120 2 -25 6 -63 8 -85 9 -121 23 -282 29 -335 2 -14 4 -37 5 -52 1
-22 6 -28 24 -28 12 0 51 -9 85 -20 35 -11 77 -22 92 -25 16 -3 42 -10 57 -17
15 -6 37 -12 48 -14 11 -1 45 -10 75 -19 30 -9 87 -25 125 -35 139 -39 221
-62 255 -71 19 -5 42 -12 50 -14 8 -2 56 -15 105 -29 50 -14 105 -29 123 -35
17 -5 32 -8 32 -5 0 3 9 0 21 -6 11 -7 33 -14 47 -16 15 -3 46 -11 69 -19 23
-8 52 -17 65 -19 30 -7 84 -22 126 -34 17 -6 32 -8 32 -5 0 3 7 0 15 -7 8 -7
15 -10 15 -6 0 3 12 1 28 -5 15 -6 34 -12 43 -14 9 -2 49 -13 90 -24 198 -57
651 -181 669 -184 8 -1 20 -5 25 -8 13 -8 66 -21 130 -33 6 -1 16 -5 23 -10 7
-4 28 -10 45 -13 18 -3 37 -9 43 -14 6 -5 14 -6 17 -2 4 3 12 1 19 -5 7 -6 15
-10 18 -10 13 2 117 -26 128 -35 6 -5 12 -7 12 -4 0 6 43 -5 157 -39 50 -15
81 -12 153 14 8 3 20 6 25 7 6 2 28 8 50 14 22 6 45 11 50 12 6 1 21 6 35 11
14 5 35 12 48 14 12 2 77 20 145 40 117 34 136 39 175 48 22 5 313 86 330 91
7 3 13 4 15 5 1 0 27 7 57 16 30 9 62 18 70 19 8 2 15 4 15 5 0 1 7 3 15 5 13
2 96 25 150 40 33 9 166 46 185 51 29 8 38 10 55 17 8 3 26 8 40 10 14 3 63
16 110 30 47 13 88 25 92 26 4 1 13 3 20 6 7 2 123 34 258 70 135 37 264 73
288 81 23 8 51 14 61 14 10 0 21 3 25 7 3 4 12 8 19 9 19 3 210 54 227 61 8 3
20 7 25 8 6 2 62 17 125 35 63 17 126 35 140 38 19 6 25 14 26 37 1 40 13 201
19 245 4 37 13 138 20 230 3 30 7 78 10 105 5 56 7 80 30 340 3 28 7 77 10
110 3 33 8 85 10 115 3 30 7 78 10 105 5 54 12 134 20 235 10 115 14 164 19
215 3 28 8 79 11 115 3 36 7 85 10 110 2 25 7 79 11 120 3 41 7 91 9 110 4 38
15 164 20 220 2 19 6 69 10 110 8 81 12 129 20 230 2 36 7 90 10 120 4 30 8
80 11 110 7 83 13 149 18 210 3 30 8 82 10 115 3 33 8 89 11 125 3 36 8 83 10
105 2 22 7 69 10 105 10 121 15 175 21 225 2 28 7 79 9 115 2 36 7 88 10 115
3 28 8 77 10 110 2 33 4 60 5 60 1 0 3 23 5 50 2 28 7 75 10 105 2 30 7 87 10
125 3 39 7 88 10 110 3 22 7 69 10 105 10 124 14 175 19 220 3 25 7 77 10 115
3 39 8 90 11 115 3 25 7 72 10 105 6 74 13 163 20 230 3 28 7 86 10 129 3 44
8 92 10 108 3 16 8 63 10 106 3 42 7 93 10 112 2 19 6 69 10 110 3 41 8 93 10
115 2 22 6 69 9 105 4 36 9 90 12 120 3 30 7 80 10 110 2 30 6 78 9 105 3 28
7 82 10 120 3 39 7 90 10 115 3 25 7 74 10 110 14 164 17 204 31 333 l6 57
-3627 0 -3626 0 6 -57z"/>
</g>
</svg>
